<svg xmlns="http://www.w3.org/2000/svg" viewBox="0 0 70 70">
  <path fill="#c4c4c4" d="M62.63,31.69l-3.77,2.19L57.47,23.31l1.39-8,7.46,5.46L70,31.69V48.1L56.74,51.38l7-5.47Z"/>
  <path fill="#c4c4c4" d="M7.37,31.69l3.77,2.19,1.39-10.57-1.39-8L3.68,20.75,0,31.69V48.1l13.26,3.28-7-5.47Z"/>
  <path fill="#c4c4c4" fill-rule="evenodd" d="M48.91,3.87,34.86,0h0L20.77,3.87,11.71,14.7l1.77,7.44v7.79l-3,10.94v3.82l10.28,2.74,2.67,4.83,5,.88,6.42-1.56,6.42,1.56,5-.88,2.66-4.83L59.2,44.69V40.87l-3-10.94V22.14L58,14.7Zm1.47,20.3-5.79-2-4.52,3.05L39.49,33l6,4.39,4.85-.53,3.41-6.39Zm-26.09-2-5.79,2-3.41,6.25,3.41,6.39,4.85.53,6-4.39-.58-7.68Zm8,11.08,2.55-1.42V43.34h-.42L31.7,44.88l-4-.27.89-4.86Zm5.1,0-2.55-1.42V43.34h.41L38,44.88l4-.27L41,39.75Z"/>
  <path fill="#c4c4c4" d="M24.73,25.9,21,27.15l-2.19,4L21,35.27l3.12.34L28,32.79l-.38-4.94Z"/>
  <path fill="#c4c4c4" d="M43.88,25.9l3.72,1.25,2.2,4-2.2,4.1-3.12.34-3.89-2.82L41,27.85Z"/>
  <path fill="#c4c4c4" d="M33,52.8l1.66-.57v3.09l-.86.7-.88-.2Z"/>
  <path fill="#c4c4c4" d="M30.45,53l2.11-.46v2.51l-1.09.56h-1Z"/>
  <path fill="#c4c4c4" d="M44.42,52.85l1.66-.29v1.57l-.86.35h-.8Z"/>
  <path fill="#c4c4c4" d="M36.77,52.57,35.11,52v3.05l.86.68h.8Z"/>
  <path fill="#c4c4c4" d="M39.43,53.25l-2.11-.47v2.56l1.09.57h1Z"/>
  <path fill="#c4c4c4" d="M41.26,53.67l-1.47-.44v2.38l.76.54h.71Z"/>
  <path fill="#c4c4c4" d="M42,53.67l2.21-.44v2.38l-1.14.54H42Z"/>
  <path fill="#c4c4c4" d="M28,53.46l-1.66-.35V55l.86.42H28Z"/>
  <path fill="#c4c4c4" d="M25.9,53.07l-1.66-.29v1.57l.86.35h.8Z"/>
  <path fill="#c4c4c4" d="M21.68,61.56,17.24,46.89l-4.44-1.1L17.24,60.1l.37,6.23L35.74,70l15.91-2.57.37-6.6,5.18-15-5.55,1.47L47.58,61.93l-.74-2.2-4.44,2.2L34.63,63l-7-1.1L23.16,60.1Z"/>
  <path fill="#c4c4c4" d="M31,61.83V58.72L29.89,58h-.73l-.36,3.46Z"/>
  <path fill="#c4c4c4" d="M25.52,57.34l-.73,2.76-1.46-.69Z"/>
  <path fill="#c4c4c4" d="M35.38,62.18V59.39l1.09-.7,1.09.35.36,2.79Z"/>
  <path fill="#c4c4c4" d="M38.65,61.83l-.73-3.14.73-.35L40.11,58l1.09.35.36,3.14Z"/>
  <path fill="#c4c4c4" d="M41.92,61.48l-.36-3.14.73-.7h1.09l1.09,2.79Z"/>
  <path fill="#c4c4c4" d="M43.38,56.59l1.46,3.49,1.45-.69Z"/>
</svg>
