<svg xmlns="http://www.w3.org/2000/svg" viewBox="0 0 66.36 70">
  <path fill="#c4c4c4" d="M62.82,21.82l-1.88,7.4v7.71l3.05,10L66.36,35Z"/>
  <path fill="#c4c4c4" d="M3.54,21.82l1.88,7.4v7.71l-3,10L0,35Z"/>
  <path fill="#c4c4c4" fill-rule="evenodd" d="M15.68,4.82,33.08,0h0l17.4,4.81L61.73,18.33l-2.2,9.27v9.71L63.24,51v4.75L50.51,59.13l-3.29,6L41,66.25l-7.94-2-8,2L19,65.15l-3.3-6L3,55.71V51L6.66,37.31V27.6l-2.2-9.27ZM52.33,30.13,45.16,27.7l-5.6,3.8-.72,9.58,7.48,5.47,6-.65,4.22-8ZM20,27.7l-7.17,2.43-4.22,7.8,4.22,8,6,.65,7.48-5.47-.72-9.58Zm16.2,13.82-3.16-1.78V54h.51L37,56l4.9-.34-1.09-6Zm-6.32,0,3.16-1.78V54h-.52L29.2,56l-4.91-.34,1.1-6Z"/>
  <path fill="#c4c4c4" d="M20.58,32.29,16,33.85l-2.71,5L16,44l3.86.41,4.82-3.51-.47-6.15Z"/>
  <path fill="#c4c4c4" d="M44.28,32.29l4.61,1.56,2.72,5L48.89,44,45,44.39l-4.81-3.51.46-6.15Z"/>
  <path fill="#c4c4c4" d="M30.81,65.83l2.06-.71V69l-1.06.86-1.1-.24Z"/>
  <path fill="#c4c4c4" d="M27.66,66.11l2.61-.58v3.13l-1.35.7H27.66Z"/>
  <path fill="#c4c4c4" d="M45,65.89,47,65.53v2L46,67.92H45Z"/>
  <path fill="#c4c4c4" d="M35.48,65.55l-2.06-.7v3.8l1.07.85h1Z"/>
  <path fill="#c4c4c4" d="M38.77,66.39l-2.6-.59V69l1.34.71h1.26Z"/>
  <path fill="#c4c4c4" d="M41,66.91l-1.82-.55v3l.94.66H41Z"/>
  <path fill="#c4c4c4" d="M42,66.91l2.73-.55v3L43.28,70H42Z"/>
  <path fill="#c4c4c4" d="M24.57,66.65l-2.06-.44v2.35l1.06.53h1Z"/>
  <path fill="#c4c4c4" d="M22,66.16,20,65.8v2L21,68.2h1Z"/>
</svg>
