<svg xmlns="http://www.w3.org/2000/svg" viewBox="0 0 65.33 70">
  <path fill="#c4c4c4" d="M6.62,2.05S15-.74,34.5.19,51.22,3.91,51.22,3.91L40.07,15.07s-1.85.93.93,2.8S64.23,34.61,65.16,47.64,63.3,64.38,54.94,67.17,30.78,70.89,20.56,69,3.84,61.59,1.05,52.29A22,22,0,0,1,5.23,31.35C9,26.7,16.38,22.05,13.59,15.54S4.3,1.59,6.62,2.05Z"/>
  <path fill="#202020" d="M39.34,43a7.73,7.73,0,0,1,1.31,6.78c-1.09,3.84-6.1,6.29-9.87,4.88-.94-.35-1.63-.46-2.23.48s-1.15,2-2.47,1.69c-1.55-.41-1.6-1.87-1.79-3.15-.06-.43-.1-.86-.16-1.42s-.43-1.33-.61-2.06a1.54,1.54,0,0,1,.55-1.74,1.68,1.68,0,0,1,2.11-.09A8.66,8.66,0,0,1,27.81,50a4.64,4.64,0,0,0,4.63,1.67c2.35-.31,3.23-.91,3.77-2.91a4.22,4.22,0,0,0-1.78-5.11,14.85,14.85,0,0,0-5.45-2,10.66,10.66,0,0,1-6.46-3.45,4.09,4.09,0,0,1-.85-4.2c1.22-4,4.56-6,8.67-5.12a2,2,0,0,0,2.26-.74,1.64,1.64,0,0,1,2.56-.15c.84.69,1.54,4.94.91,5.84s-1.46.79-2.25.19a30.37,30.37,0,0,0-2.8-2.2,4.28,4.28,0,0,0-6.33,2.37,1.76,1.76,0,0,0,1,2.6A46,46,0,0,0,32.51,39C35.18,39.69,37.67,40.67,39.34,43Z"/>
</svg>
