<svg xmlns="http://www.w3.org/2000/svg" viewBox="0 0 48.92 70" width="48.92px" height="70px">
  <path fill="#c4c4c4" d="M48.61,56a2.55,2.55,0,0,0-2-1.46c-.26,0-5.13-1.21-5.18-1.25a5.13,5.13,0,0,1,.52-.61c.3-.32,1-1.09,1.54-1.7l1-1.11-.7-.76-.7-.77-.1.13c-.13.16-.11.09.15-.4a11.38,11.38,0,0,0,1.06-3.34,15.88,15.88,0,0,0,0-3.58c-.08-.56-.4-2.11-.44-2.14s-.2.33-.44.75c-1.1,2-1.79,2.77-3,3.33l-.45.21,0-1.2a13,13,0,0,0-.15-1.87,13.19,13.19,0,0,1-.24-2.77A11.36,11.36,0,0,1,42,30a26.27,26.27,0,0,1,3.08-3.09c.41-.34.75-.63.75-.64a9.72,9.72,0,0,0-1.67.18,15.35,15.35,0,0,0-4.76,1.41l-.47.24a1.23,1.23,0,0,1,.1-.41,11.91,11.91,0,0,0,.29-6.28,9,9,0,0,0-1.4-2.91l-.27-.37.2-.44a4.8,4.8,0,0,0,0-4c-.23-.66-.5-1.47-.69-2.1,0,0-.09-.06-.18-.06s-.18,0-.2.12c-.06.3-.15.87-.29,2.09-.1.72-.21,1.43-.25,1.57s-.4.59-.52.59a9.35,9.35,0,0,0-1,1.53,4.89,4.89,0,0,0,.17,3.52l.14.43.47-.51c.26-.28.66-.73.9-1s.42-.47.39-.39-.16.47-.31.87a21.67,21.67,0,0,1-2.09,4.26l-.37.57-.31-.55c-.18-.3-.51-.82-.74-1.15l-.42-.61.24-1c.75-3.13.84-5.22.3-7.22a8.56,8.56,0,0,1-.21-1.12c-.09-.91-.35-1.36-1.72-2.87-.32-.36-.74-.84-.92-1.06a13.53,13.53,0,0,1-2.7-8.44l0-1.08H27.4a.38.38,0,0,0-.25.14c-2.73,3.49-3.94,6.05-4.4,9.31-.06.44-.12.86-.12.93s0,.13-.14-.07-.13-.31-.15-.85A8.54,8.54,0,0,0,21.8,6.9c-.36-.52-.33-.93.21-3,.36-1.35.68-2.71.68-2.86S22.63,1,22.55.94s-.15,0-.22,0c-.19.27-.67.85-1.32,1.59a9.49,9.49,0,0,0-2,2.8,8.69,8.69,0,0,0,0,5.43c.2.77,1,3.07,1,3.16a4.84,4.84,0,0,0,.89-1,8.8,8.8,0,0,0,.92-1.52,1.65,1.65,0,0,1,.16-.32,2.56,2.56,0,0,1,.13.51,20,20,0,0,1,.39,2.62,2.86,2.86,0,0,1-.1,1.21,24.13,24.13,0,0,1-1.76,4.4A31.89,31.89,0,0,0,19.32,23a12.84,12.84,0,0,0-.54,2.19l-.05.34,0-.22a26.6,26.6,0,0,1-.14-3,13.9,13.9,0,0,1,.29-2.28c.1-.37.07-.63-.17-2.06a8.64,8.64,0,0,0-2.27-5,13.45,13.45,0,0,0-1.71-1.45.85.85,0,0,0,.06.33,26.2,26.2,0,0,1,.94,6.28,6.5,6.5,0,0,1-.58,3.08A3.26,3.26,0,0,1,14,22.52c-.3.16-.32.18-.71.92A16.91,16.91,0,0,0,11,30.71,8.46,8.46,0,0,1,10.79,32a13.27,13.27,0,0,0-.1,6.38,5.74,5.74,0,0,0,.17.62c.05.13.07.14-.57-.28a8.59,8.59,0,0,1-.75-.57c-.3-.27-.31-.28-.44-.19s-.14.11-.14.13.08.25.16.51a28.37,28.37,0,0,0,4.65,8.71,2.4,2.4,0,0,1,.41.58c-.11.11-5,2.85-5.07,2.85a12.77,12.77,0,0,0-1,1.8s.13.12.31.24a1.65,1.65,0,0,1,.31.23l-.91.27c-1.06.28-2.43.66-4,1.09-.6.17-1.29.34-1.53.39a2.46,2.46,0,0,0-1.38.72A3.41,3.41,0,0,0,0,57.74c-.16,2.34,1.5,4.71,3.43,4.87a2.39,2.39,0,0,0,1.31-.27c.27-.13,6.81-4.8,8.45-6l.17-.12.29.22c.29.22.29.22.41.12A4.82,4.82,0,0,1,15,56s-.17.3-.38.63a2.38,2.38,0,0,0-.35.66,2.91,2.91,0,0,1,0,.5l0,.44L12,60.14c-1.24,1.06-2.37,2-2.52,2.07a2.26,2.26,0,0,0-1.21,1.63A4.14,4.14,0,0,0,10,67.69a5.82,5.82,0,0,0,1.62.8,3.86,3.86,0,0,0,1.59,0A2.28,2.28,0,0,0,14.69,67a39.73,39.73,0,0,1,2.54-3.93l2.43-3.58.57,0a3.93,3.93,0,0,1,.87.14,1.36,1.36,0,0,0,.33.08,7.55,7.55,0,0,0,.39-.82,6.12,6.12,0,0,1,.37-.77s.16,7.77.12,7.88a2.77,2.77,0,0,0,.22,2,4.12,4.12,0,0,0,5.55,1.47,3.57,3.57,0,0,0,1.77-2.14,3.07,3.07,0,0,0-.19-1.9c-.1-.19-2.39-8.47-2.36-8.5a2.07,2.07,0,0,1,.53.3l.49.34,1.5,2,3.51,4.66c1.1,1.47,2.11,2.79,2.25,2.91a2.49,2.49,0,0,0,2.19.61,3.42,3.42,0,0,0,2.45-2,3.66,3.66,0,0,0,0-3.36,2.34,2.34,0,0,0-.94-1c-.51-.35-4.53-3.52-4.55-3.57s.06-.06.16-.08a4,4,0,0,0,.55-.15l.37-.1v-.9a6.11,6.11,0,0,1,0-.9c.06,0,7.89,4.5,8.06,4.63l.31.25a3,3,0,0,0,.57.28,1.4,1.4,0,0,0,.94.14,3.9,3.9,0,0,0,.82-.15,3.66,3.66,0,0,0,2.21-2.34,2.53,2.53,0,0,0,.15-1.06A2.62,2.62,0,0,0,48.61,56ZM22.89,40.48c1.77,5.87,4.45,9.13,2.82,8.09a14.07,14.07,0,0,1-4.44-5.21c-.73-1.71-1.9-3.47-1.9-1.12a32.39,32.39,0,0,1-.59,5.29s.21,2.35-1.07,0-2.45-6.47-.69-10,7.24-9.14,7.44-13.39,2,1.64,2,2.81S21.13,34.6,22.89,40.48Zm14.69-1.2c-1.76,7.07-8.81,8.83-8.81,8.83s-1.76.59-.59-1.17c0,0,6.47-7.64,4.7-16.45,0,0-1.17-2.35,1.18-.59s1.09,9.88,1.09,9.88-.35,1.66.75,0a15.8,15.8,0,0,0,1.68-4.59S39.35,32.21,37.58,39.28Z"/>
  <path fill="#c4c4c4" d="M44.83,29.4l.22-.64s0-.08-.13-.12l-.16-.08L43.4,29.91a8.49,8.49,0,0,0-2.14,2.59,4.78,4.78,0,0,0-.45,2.18,10.67,10.67,0,0,0,.29,2.84,21.68,21.68,0,0,0,.63,2.26,8.86,8.86,0,0,0,1.42-1.52A4.27,4.27,0,0,0,44,34.54a2,2,0,0,0-.23-.86.78.78,0,0,1-.13-.53,6.35,6.35,0,0,1,.6-2C44.45,30.5,44.72,29.74,44.83,29.4Z"/>
</svg>
