<svg xmlns="http://www.w3.org/2000/svg" viewBox="0 0 70 47.27" width="70px" height="47.27px">
  <path fill="#c4c4c4" fill-rule="evenodd" d="M34.86,14.06H25.7L29.54,0H40.22l3.87,14.06ZM27.18,2.39,23.93,12.57l-13,1.49L9.45,2.39Zm-25.11,0H6.5L8.27,15.86H61.66L63.45,2.39h4.47L66.43,15.86H70v12H66.43l1.49,19.44H61.66V27.83H8.27V47.27H2.07L3.55,27.83H0v-12H3.55ZM34.86,29.32H10.93l-.59,18H59.58l-.6-18ZM42.6,2.39l3.28,10.18L59,14.06,60.47,2.39ZM32.92,19.27l1.16-1.47h1.85L37,19.27v1.48l-1.36.74L37,25.86H32.92l1.42-4.37-1.42-.74Z"/>
</svg>
