<svg xmlns="http://www.w3.org/2000/svg" viewBox="0 0 61.58 70">
  <path fill="#c4c4c4" d="M34.34.16C45.79.75,54.19,8,55.87,18.49c1.45,9.13-4.45,17.29-15.39,21.3-2.68,1.9-5.37,3.74-5.61,7.1A2.11,2.11,0,0,0,34.48,48c0,.95-.83,1.95-1.37,2.9a15.38,15.38,0,0,0-2.25.16,12.86,12.86,0,0,1-7-3.88c-.08-.68-.14-1.35-.16-2-.09-3.25-1.55-6.79,1.83-9.37,2-2.77,5.06-1.68,7.69-2.27,7-1.57,11.67-8.9,10.59-16.46C43,11.57,36.85,6.78,30.14,6.45,24.29,6.15,16.92,12,15.81,17.74c-.52,2.66,1.1,4.77,1.61,7.16.6,2.74,0,5.12-3,5.87s-4.64-1-5.76-3.52c-5-11.2,3.59-25.53,16.34-27A55.78,55.78,0,0,1,34.34.16Zm1.57,60c2.29,2.58,1.18,5.13-.91,7.35s-4.51,3.17-7.46,1.85c-2.76-1.24-5.46-3.73-4-6.31a12.42,12.42,0,0,0,1.58-5.27l.19-.12c1.2-.26,2.4-.49,3.61-.72a31.22,31.22,0,0,1,5.25,1.11A25.1,25.1,0,0,0,35.91,60.2Z"/>
  <path fill="#c4c4c4" d="M56.69,41.85a7,7,0,0,1,4.8,7.74c-.45,2.94-3.05,4.87-6.8,5-1,.32-2,.62-2.42,1.63a.64.64,0,0,0-.23.31c-.11.29-.45.52-.71.75a5.94,5.94,0,0,0-.7-.17,4.15,4.15,0,0,1-1.78-1.88q.06-.31.15-.63c.29-1,.19-2.24,1.48-2.7.88-.65,1.72,0,2.58.06a4.7,4.7,0,0,0,4.87-4c.3-1.76-1.12-3.84-3.14-4.6a5.14,5.14,0,0,0-5.51,2.06c-.42.76-.13,1.57-.2,2.35s-.5,1.58-1.49,1.51-1.33-.76-1.43-1.65c-.43-3.92,3.61-7.47,7.67-6.68a19,19,0,0,1,2.86.89ZM51.28,60.42c.45,1-.14,1.69-1,2.17a2,2,0,0,1-2.47-.17c-.73-.65-1.31-1.68-.61-2.33a3.89,3.89,0,0,0,1-1.46l.07,0,1.18.14a10.53,10.53,0,0,1,1.5.85A7.38,7.38,0,0,0,51.28,60.42Z"/>
  <path fill="#c4c4c4" d="M15.27,43.12c1.12,2.75-.14,5.74-3.28,7.79-.7.79-1.41,1.57-1.24,2.64a.63.63,0,0,0,0,.38,2.37,2.37,0,0,1-.22,1,5.68,5.68,0,0,0-.7.22,4.13,4.13,0,0,1-2.48-.71c-.08-.21-.14-.41-.2-.62-.27-1-1-2-.11-3.08.42-1,1.47-.89,2.25-1.27a4.69,4.69,0,0,0,2.13-5.93c-.64-1.67-2.92-2.73-5.05-2.35a5.14,5.14,0,0,0-3.68,4.59c0,.87.69,1.41,1,2.13s.38,1.6-.51,2a1.56,1.56,0,0,1-2.07-.68C-1.28,46.14.38,41,4.27,39.63a17.24,17.24,0,0,1,2.92-.7A7,7,0,0,1,15.27,43.12ZM12,57.65c.91.64.74,1.52.25,2.37a2,2,0,0,1-2.21,1.12c-.95-.18-2-.77-1.71-1.69a3.88,3.88,0,0,0,.11-1.76l0-.06,1.08-.48a10,10,0,0,1,1.73,0A5.94,5.94,0,0,0,12,57.65Z"/>
</svg>
